<?xml version="1.0" encoding="UTF-8" standalone="no"?><!-- Generator: Gravit.io --><svg xmlns="http://www.w3.org/2000/svg" xmlns:xlink="http://www.w3.org/1999/xlink" style="isolation:isolate" viewBox="0 0 72 72" width="72pt" height="72pt"><defs><clipPath id="_clipPath_fBQrCbh1evVZ2dshmgvvWTYX1h1ffEER"><rect width="72" height="72"/></clipPath></defs><g clip-path="url(#_clipPath_fBQrCbh1evVZ2dshmgvvWTYX1h1ffEER)"><path d="M 7.2 0 L 64.8 0 C 68.774 0 72 3.226 72 7.2 L 72 64.8 C 72 68.774 68.774 72 64.8 72 L 7.2 72 C 3.226 72 0 68.774 0 64.8 L 0 7.2 C 0 3.226 3.226 0 7.2 0 Z" style="stroke:none;fill:#0EA5E9;stroke-miterlimit:10;"/><path d=" M 31.452 52.364 L 11.445 52.364 L 11.445 19.636 L 31.197 19.636 L 31.197 23.152 L 15.408 23.152 L 15.408 34.21 L 30.174 34.21 L 30.174 37.726 L 15.408 37.726 L 15.408 48.848 L 31.452 48.848 L 31.452 52.364 L 31.452 52.364 Z  M 59.833 52.364 L 37.269 52.364 L 37.269 49.487 L 54.911 23.152 L 37.077 23.152 L 37.077 19.636 L 59.641 19.636 L 59.641 22.513 L 41.999 48.848 L 59.833 48.848 L 59.833 52.364 L 59.833 52.364 Z " fill="rgb(255,255,255)"/></g></svg>